<svg width="8000" height="8000" viewBox="0 0 8000 8000" fill="none" xmlns="http://www.w3.org/2000/svg">
<rect width="8000" height="8000" rx="4000" fill="white"/>
<path d="M5052 5132C5092 5193.33 5133.33 5242.67 5176 5280C5218.67 5317.33 5273.33 5349.33 5340 5376V5456C5153.33 5448 4945.33 5444 4716 5444C4540 5444 4370.67 5448 4208 5456V5376C4282.67 5370.67 4336 5362.67 4368 5352C4402.67 5341.33 4420 5322.67 4420 5296C4420 5274.67 4405.33 5241.33 4376 5196L3796 4256C3742.67 4170.67 3697.33 4113.33 3660 4084C3625.33 4054.67 3577.33 4037.33 3516 4032V5032C3516 5133.33 3522.67 5206.67 3536 5252C3552 5297.33 3580 5328 3620 5344C3660 5360 3725.33 5370.67 3816 5376V5456C3672 5448 3470.67 5444 3212 5444C2926.67 5444 2716 5448 2580 5456V5376C2668 5370.67 2732 5360 2772 5344C2814.67 5328 2842.67 5297.33 2856 5252C2872 5206.67 2880 5133.33 2880 5032V3048C2880 2946.67 2872 2873.33 2856 2828C2842.67 2782.67 2814.67 2752 2772 2736C2732 2720 2668 2709.33 2580 2704V2624C2716 2632 2926.67 2636 3212 2636C3470.67 2636 3672 2632 3816 2624V2704C3725.33 2709.33 3660 2720 3620 2736C3580 2752 3552 2782.67 3536 2828C3522.67 2873.33 3516 2946.67 3516 3048V3948C3622.67 3942.67 3720 3910.67 3808 3852C3896 3793.33 3996 3700 4108 3572L4344 3288C4466.67 3146.67 4528 3022.67 4528 2916C4528 2852 4501.33 2801.33 4448 2764C4397.33 2726.67 4325.33 2705.33 4232 2700V2624C4426.67 2632 4624 2636 4824 2636C4978.67 2636 5104 2632 5200 2624V2700C4986.67 2750.67 4793.33 2878.67 4620 3084L4120 3680L5052 5132Z" fill="black"/>
</svg>
